<svg xmlns="http://www.w3.org/2000/svg" width="26.039" height="26.458" viewBox="0 0 26.039 26.458">
  <path id="email_icon" d="M18.756-6.768h-.081Q17.5-2.933,14.051-2.933A4.382,4.382,0,0,1,10.5-4.56,6.667,6.667,0,0,1,9.152-8.943a9.6,9.6,0,0,1,1.861-6.051A5.885,5.885,0,0,1,15.9-17.4a3.7,3.7,0,0,1,2.071.6,2.652,2.652,0,0,1,1.168,1.5h.064q.032-.451.161-1.853h2.014q-.757,8.878-.757,9.04,0,3.335,1.917,3.335a3.357,3.357,0,0,0,2.892-1.885,9.253,9.253,0,0,0,1.152-4.882,9.791,9.791,0,0,0-2.8-7.235,10.5,10.5,0,0,0-7.767-2.8A10.352,10.352,0,0,0,8.1-18.24,11.81,11.81,0,0,0,4.979-9.861,10.925,10.925,0,0,0,7.952-1.877,10.7,10.7,0,0,0,15.968,1.16a15.928,15.928,0,0,0,6.8-1.321v2a17.755,17.755,0,0,1-6.961,1.192A12.873,12.873,0,0,1,6.357-.508,12.427,12.427,0,0,1,2.771-9.765a13.488,13.488,0,0,1,3.762-9.781,12.8,12.8,0,0,1,9.612-3.883,13,13,0,0,1,9.072,3.255,10.92,10.92,0,0,1,3.593,8.492A10.013,10.013,0,0,1,26.917-5.39,5.656,5.656,0,0,1,22.3-2.933Q18.772-2.933,18.756-6.768Zm-2.884-8.766a3.715,3.715,0,0,0-3.231,1.9,8.506,8.506,0,0,0-1.233,4.721,4.856,4.856,0,0,0,.83,3,2.64,2.64,0,0,0,2.216,1.1,3.548,3.548,0,0,0,3.166-1.99,10.369,10.369,0,0,0,1.168-5.277Q18.788-15.533,15.872-15.533Z" transform="translate(-2.771 23.429)" fill="#301258"/>
</svg>
