<svg xmlns="http://www.w3.org/2000/svg" width="296" height="49" viewBox="0 0 296 49">
  <g id="login_button" transform="translate(-38 -445)">
    <path id="button" d="M24.5,0h247a24.5,24.5,0,0,1,0,49H24.5a24.5,24.5,0,0,1,0-49Z" transform="translate(38 445)" fill="#2b44ff"/>
    <path id="text" d="M2.1-2.953A2.3,2.3,0,0,0,2.5-1.74,2.485,2.485,0,0,0,4.57-.976a3.059,3.059,0,0,0,1.547-.382A1.27,1.27,0,0,0,6.785-2.54a1.011,1.011,0,0,0-.536-.923A6.374,6.374,0,0,0,4.9-3.911L3.639-4.228A6.131,6.131,0,0,1,1.863-4.9,2,2,0,0,1,.844-6.671a2.713,2.713,0,0,1,.962-2.162,3.839,3.839,0,0,1,2.588-.826A3.593,3.593,0,0,1,7.462-8.411a2.708,2.708,0,0,1,.571,1.705H6.539a1.83,1.83,0,0,0-.378-.976,2.41,2.41,0,0,0-1.89-.624,2.259,2.259,0,0,0-1.358.343,1.074,1.074,0,0,0-.461.905,1.114,1.114,0,0,0,.606.984A3.644,3.644,0,0,0,4.1-5.687l1.046.255a8.087,8.087,0,0,1,2.285.8A2.118,2.118,0,0,1,8.35-2.725,2.906,2.906,0,0,1,7.4-.554a4.059,4.059,0,0,1-2.9.914A3.9,3.9,0,0,1,1.516-.593,3.606,3.606,0,0,1,.58-2.953Zm8.06-6.416h1.608V0H10.16Zm0-3.542h1.608v1.793H10.16ZM17.481-9.58a3.431,3.431,0,0,1,1.934.545,4.343,4.343,0,0,1,.914.9V-9.325h1.459V-.765a6.313,6.313,0,0,1-.527,2.83,3.786,3.786,0,0,1-3.718,1.916A4.56,4.56,0,0,1,14.985,3.3a2.656,2.656,0,0,1-1.16-2.131h1.608a1.79,1.79,0,0,0,.457.976,2.33,2.33,0,0,0,1.688.527A2.322,2.322,0,0,0,19.96,1.389a7.227,7.227,0,0,0,.308-2.7A3.1,3.1,0,0,1,19.125-.237a3.8,3.8,0,0,1-1.767.352A3.771,3.771,0,0,1,14.682-.971a4.774,4.774,0,0,1-1.147-3.59,5.437,5.437,0,0,1,1.156-3.691A3.574,3.574,0,0,1,17.481-9.58Zm2.848,4.834a3.924,3.924,0,0,0-.721-2.593,2.309,2.309,0,0,0-1.837-.844,2.268,2.268,0,0,0-2.285,1.564,6.134,6.134,0,0,0-.325,2.188,3.885,3.885,0,0,0,.646,2.421,2.085,2.085,0,0,0,1.736.831,2.437,2.437,0,0,0,2.4-1.538A4.961,4.961,0,0,0,20.329-4.746ZM24.17-9.413h1.5v1.336a4.215,4.215,0,0,1,1.415-1.187,3.773,3.773,0,0,1,1.661-.36,2.739,2.739,0,0,1,2.707,1.4,4.962,4.962,0,0,1,.387,2.188V0H30.234V-5.933a3.212,3.212,0,0,0-.255-1.389A1.545,1.545,0,0,0,28.45-8.2a3.114,3.114,0,0,0-.923.114,2.377,2.377,0,0,0-1.143.773,2.329,2.329,0,0,0-.514.962,6.478,6.478,0,0,0-.119,1.419V0H24.17Zm15.012.044H40.79V0H39.182Zm0-3.542H40.79v1.793H39.182Zm4,3.5h1.5v1.336A4.215,4.215,0,0,1,46.1-9.264a3.773,3.773,0,0,1,1.661-.36,2.739,2.739,0,0,1,2.707,1.4,4.962,4.962,0,0,1,.387,2.188V0H49.245V-5.933a3.212,3.212,0,0,0-.255-1.389A1.545,1.545,0,0,0,47.461-8.2a3.114,3.114,0,0,0-.923.114,2.377,2.377,0,0,0-1.143.773,2.329,2.329,0,0,0-.514.962,6.478,6.478,0,0,0-.119,1.419V0H43.181Z" transform="translate(158 476)" fill="#fff"/>
  </g>
</svg>
