<svg xmlns="http://www.w3.org/2000/svg" width="130.959" height="142.245" viewBox="0 0 130.959 142.245">
  <path id="logo_name" d="M794.643,500.92a5.164,5.164,0,0,1-2.256-4.145h3.128a3.478,3.478,0,0,0,.889,1.9,4.527,4.527,0,0,0,3.28,1.026q3.538,0,4.631-2.5a14.048,14.048,0,0,0,.6-5.246,6.029,6.029,0,0,1-2.222,2.084,7.965,7.965,0,0,1-8.638-1.426q-2.23-2.111-2.23-6.981a10.57,10.57,0,0,1,2.247-7.177,6.947,6.947,0,0,1,5.426-2.581,6.669,6.669,0,0,1,3.759,1.06,8.435,8.435,0,0,1,1.777,1.742v-2.307h2.837v16.646a12.28,12.28,0,0,1-1.025,5.5q-1.914,3.726-7.23,3.726A8.867,8.867,0,0,1,794.643,500.92Zm.974-19.286a11.939,11.939,0,0,0-.633,4.256,7.555,7.555,0,0,0,1.256,4.708,4.057,4.057,0,0,0,3.375,1.616,4.738,4.738,0,0,0,4.666-2.992,9.644,9.644,0,0,0,.752-3.947,7.633,7.633,0,0,0-1.4-5.042,4.491,4.491,0,0,0-3.572-1.641A4.411,4.411,0,0,0,795.617,481.634Zm-68.162,20.32a7.909,7.909,0,0,1-.863-.188v-2.8a10.529,10.529,0,0,0,1.162.274,4.532,4.532,0,0,0,.632.051,2.221,2.221,0,0,0,1.256-.282,2.59,2.59,0,0,0,.675-.693q.085-.136.616-1.4t.769-1.879L724.934,476.2h3.486l4.905,14.9,4.939-14.9h3.4q-.649,1.76-2.888,8.033-1.675,4.717-2.8,7.69-2.665,7.006-3.759,8.545a4.3,4.3,0,0,1-3.76,1.538A7.354,7.354,0,0,1,727.455,501.954Zm47.091-9.339a10.092,10.092,0,0,1-2.222-6.862,10.918,10.918,0,0,1,2.342-7.349,7.856,7.856,0,0,1,6.289-2.735,8.289,8.289,0,0,1,5.981,2.359q2.443,2.358,2.443,6.938a11.9,11.9,0,0,1-2.153,7.314q-2.153,2.889-6.682,2.889A7.545,7.545,0,0,1,774.545,492.615Zm2.222-12.109a9.976,9.976,0,0,0-1.282,5.2,8.68,8.68,0,0,0,1.282,4.871,4.513,4.513,0,0,0,4.067,1.948,4.242,4.242,0,0,0,4.2-2.316,11.543,11.543,0,0,0,1.136-5.152,9.181,9.181,0,0,0-.82-4.17,4.614,4.614,0,0,0-4.477-2.529A4.414,4.414,0,0,0,776.768,480.506Zm36.495,13.065a5.139,5.139,0,0,1-1.615-3.871,4.986,4.986,0,0,1,1.589-3.947,7.562,7.562,0,0,1,4.171-1.726l4.9-.616a1.672,1.672,0,0,0,1.419-.888,2.718,2.718,0,0,0,.2-1.179,2.5,2.5,0,0,0-1.119-2.281,6,6,0,0,0-3.2-.709,4.073,4.073,0,0,0-3.418,1.3,4.281,4.281,0,0,0-.734,2.136h-2.871q.085-3.383,2.2-4.708a9.017,9.017,0,0,1,4.9-1.325,9.959,9.959,0,0,1,5.247,1.231,4.173,4.173,0,0,1,2,3.828v10.544a1.35,1.35,0,0,0,.2.77.947.947,0,0,0,.829.29c.137,0,.291-.008.461-.025s.354-.043.547-.077v2.273a8.589,8.589,0,0,1-1.094.257,8,8,0,0,1-1.026.051,2.529,2.529,0,0,1-2.307-1.129,4.342,4.342,0,0,1-.53-1.691,7.827,7.827,0,0,1-2.7,2.136,8.353,8.353,0,0,1-3.879.906A5.767,5.767,0,0,1,813.263,493.572Zm9.134-7.784a12.419,12.419,0,0,1-1.742.342l-1.863.238a7.127,7.127,0,0,0-2.513.7,2.73,2.73,0,0,0-1.418,2.563,2.533,2.533,0,0,0,.975,2.1,3.613,3.613,0,0,0,2.307.769,7.014,7.014,0,0,0,3.145-.751,4.231,4.231,0,0,0,2.563-4.084v-2.479A5.234,5.234,0,0,1,822.4,485.788Zm-61.01,8.716V484.386L751.9,469.4h3.964l7.213,12.065L770.29,469.4h3.982l-9.485,14.988V494.5Zm-42.554,0V479.687q0-.77.034-2.547t.034-3.811L711.74,494.5h-3.366l-7.213-21.174v.769q0,.923.043,2.812t.042,2.777V494.5H698V469.4h4.87l7.213,21.226,7.16-21.226h4.819v25.1Zm70.405-38.578-28.213-14.577-25.862,14.107c-5.643,3.292-12.7,2.821-18.338-.47a22.925,22.925,0,0,1-9.4-18.338v-.94a20.719,20.719,0,0,1,9.875-17.869c5.643-3.291,12.226-3.762,17.869-.471L761.025,431l28.213-15.047c5.643-3.291,12.7-2.822,18.338.47a20.718,20.718,0,0,1,9.875,17.869v3.292a20.716,20.716,0,0,1-9.875,17.868,25.259,25.259,0,0,1-9.874,2.352A18.45,18.45,0,0,1,789.238,455.926Zm4.7-31.975-22.571,11.756,22.571,11.755c3.762,1.881,7.053.471,8.934-.47,3.291-1.881,5.172-5.643,5.172-9.875v-3.291c0-4.232-1.881-7.994-5.172-9.875a7.778,7.778,0,0,0-8.934,0ZM722,425.831c-3.291,1.881-5.172,5.642-5.172,9.875v.94c0,4.232,1.881,7.994,5.172,9.874a7.778,7.778,0,0,0,8.934,0l20.219-10.814-20.219-10.345a6.988,6.988,0,0,0-4.232-.941A11.128,11.128,0,0,0,722,425.831Zm-8.464-26.8,6.583-6.583c1.41,1.411,39.5,36.678,84.17-.47l6.113,7.053c-16.928,14.577-33.385,19.279-47.963,19.279C733.752,418.307,714,399.5,713.532,399.029Zm30.1-18.809a20.219,20.219,0,1,1,40.439,0,20.219,20.219,0,1,1-40.439,0Zm9.4,0A10.815,10.815,0,1,0,763.846,369.4,10.641,10.641,0,0,0,753.031,380.219Z" transform="translate(-698 -360)" fill="#fff"/>
</svg>
