<svg xmlns="http://www.w3.org/2000/svg" width="206" height="206" viewBox="0 0 206 206">
  <path id="logo_circle" d="M-635.4,357.937a103.182,103.182,0,0,1-28.321-3.943,102.482,102.482,0,0,1-25.3-11.1l46.3-25.254,50.511,26.1a31.067,31.067,0,0,0,5.335,2.078,102.438,102.438,0,0,1-23.1,8.962A103.4,103.4,0,0,1-635.4,357.937Zm58.465-27.692h0a15.235,15.235,0,0,1-6.862-1.66l-40.409-21.046,40.409-21.046a14.44,14.44,0,0,1,8-2.525,14.445,14.445,0,0,1,8,2.525,17.584,17.584,0,0,1,6.84,7.261,22.749,22.749,0,0,1,2.42,10.418v5.893a22.748,22.748,0,0,1-2.42,10.417,17.588,17.588,0,0,1-6.84,7.261A20.424,20.424,0,0,1-576.939,330.245Zm-127.668-.818a13.456,13.456,0,0,1-2.108-.167,103.612,103.612,0,0,1-15.084-18.22c-.043-.6-.065-1.21-.065-1.817v-1.684a22.749,22.749,0,0,1,2.42-10.418,17.586,17.586,0,0,1,6.84-7.261c1.64-.82,5.054-2.525,8.419-2.525,2.483,0,5.051,0,7.576,1.684l36.2,18.52-36.2,19.363A14.441,14.441,0,0,1-704.607,329.427Zm61.877-30.307-46.3-24.413a29.065,29.065,0,0,0-14.829-4.021,34.267,34.267,0,0,0-17.162,4.863,37.44,37.44,0,0,0-6.8,5.351,36.739,36.739,0,0,0-5.3,6.685,102.853,102.853,0,0,1-5.281-32.647,103.759,103.759,0,0,1,2.093-20.758,102.48,102.48,0,0,1,6-19.334,103.007,103.007,0,0,1,9.5-17.5A103.737,103.737,0,0,1-708.237,182.1a103.737,103.737,0,0,1,15.244-12.577,103.007,103.007,0,0,1,17.5-9.5,102.481,102.481,0,0,1,19.334-6,103.762,103.762,0,0,1,20.758-2.093,103.761,103.761,0,0,1,20.758,2.093,102.482,102.482,0,0,1,19.334,6,103.005,103.005,0,0,1,17.5,9.5A103.738,103.738,0,0,1-562.573,182.1,103.742,103.742,0,0,1-550,197.349a103.014,103.014,0,0,1,9.5,17.5,102.485,102.485,0,0,1,6,19.334,103.762,103.762,0,0,1,2.093,20.758,103.6,103.6,0,0,1-2.54,22.835,102.423,102.423,0,0,1-7.25,21.048,36.973,36.973,0,0,0-5.783-14.836,36.813,36.813,0,0,0-11.41-10.962,35.079,35.079,0,0,0-17.627-4.863,31.152,31.152,0,0,0-7.822.984,29.217,29.217,0,0,0-7.384,3.037l-50.511,26.939Zm-73.242-69.032-11.785,11.786a87.2,87.2,0,0,0,6.814,5.748,144.372,144.372,0,0,0,18.021,11.825,139.723,139.723,0,0,0,27.492,11.668,122.4,122.4,0,0,0,35.226,5.275,118.4,118.4,0,0,0,20.165-1.723,119.331,119.331,0,0,0,21.191-5.748,133.281,133.281,0,0,0,21.98-10.642,164.361,164.361,0,0,0,22.533-16.4l-10.944-12.628c-24.218,20.14-49.752,30.352-75.89,30.355h-.009a104.364,104.364,0,0,1-29.633-4.376,119.2,119.2,0,0,1-23.3-9.756C-708.015,237.861-715.9,230.163-715.973,230.088ZM-637.68,172a35.378,35.378,0,0,0-13.825,2.815,36.761,36.761,0,0,0-11.536,7.708,36.347,36.347,0,0,0-7.906,11.5,35.455,35.455,0,0,0-2.933,14.18,36.553,36.553,0,0,0,2.815,14.18,35.611,35.611,0,0,0,7.708,11.5,35.61,35.61,0,0,0,11.5,7.708,36.553,36.553,0,0,0,14.18,2.815,36.554,36.554,0,0,0,14.18-2.815,35.608,35.608,0,0,0,11.5-7.708,35.608,35.608,0,0,0,7.708-11.5,36.555,36.555,0,0,0,2.815-14.18,35.456,35.456,0,0,0-2.933-14.18,36.348,36.348,0,0,0-7.906-11.5,36.762,36.762,0,0,0-11.536-7.708A35.379,35.379,0,0,0-637.68,172Zm0,55.562a19.308,19.308,0,0,1-13.785-5.577,19.309,19.309,0,0,1-5.577-13.785,19.309,19.309,0,0,1,5.577-13.785,19.308,19.308,0,0,1,13.785-5.577,19.309,19.309,0,0,1,13.785,5.577,19.309,19.309,0,0,1,5.577,13.785,19.309,19.309,0,0,1-5.577,13.785A19.308,19.308,0,0,1-637.68,227.562Z" transform="translate(738.405 -151.937)" fill="#ffd814"/>
</svg>
