<svg xmlns="http://www.w3.org/2000/svg" width="130.959" height="144.245" viewBox="0 0 130.959 144.245">
  <g id="logo_red" transform="translate(9.419 0)">
    <path id="logo_red-2" data-name="logo_red" d="M214.819,246.429l-28.214-14.577-25.861,14.107c-5.643,3.292-12.7,2.821-18.339-.47a22.927,22.927,0,0,1-9.4-18.339v-.94a20.718,20.718,0,0,1,9.875-17.868c5.642-3.292,12.226-3.762,17.869-.471l25.861,13.637,28.214-15.047c5.642-3.292,12.7-2.822,18.338.47a20.72,20.72,0,0,1,9.875,17.869v3.291a20.719,20.719,0,0,1-9.875,17.869,25.263,25.263,0,0,1-9.875,2.352A18.444,18.444,0,0,1,214.819,246.429Zm4.7-31.975-22.57,11.755,22.57,11.756c3.762,1.881,7.053.471,8.934-.47,3.292-1.881,5.172-5.643,5.172-9.875v-3.291c0-4.233-1.88-7.994-5.172-9.875a7.778,7.778,0,0,0-8.934,0Zm-71.944,1.881c-3.291,1.88-5.172,5.642-5.172,9.874v.94c0,4.233,1.881,7.994,5.172,9.875a7.778,7.778,0,0,0,8.934,0l20.219-10.815-20.219-10.345a6.987,6.987,0,0,0-4.232-.941A11.128,11.128,0,0,0,147.577,216.335Zm-8.464-26.8,6.583-6.583c1.411,1.411,39.5,36.678,84.171-.47l6.113,7.053c-16.928,14.576-33.386,19.279-47.963,19.279C159.332,208.811,139.583,190,139.113,189.532Zm30.094-18.809a20.219,20.219,0,1,1,40.439,0,20.219,20.219,0,0,1-40.439,0Zm9.4,0a10.815,10.815,0,1,0,10.815-10.815A10.641,10.641,0,0,0,178.611,170.723Z" transform="translate(-133 -150.503)" fill="#fe4d97"/>
    <path id="my_yoga" data-name="my yoga" d="M2.581-25.1H7.451L14.663-3.879,21.824-25.1h4.819V0h-3.23V-14.817q0-.769.034-2.546t.034-3.811L16.321,0H12.954L5.742-21.174v.769q0,.923.043,2.811t.043,2.777V0H2.581Zm40.264,6.8h3.4q-.649,1.76-2.888,8.032-1.675,4.717-2.8,7.69-2.666,7.007-3.76,8.545A4.3,4.3,0,0,1,33.035,7.5a7.377,7.377,0,0,1-1-.051,7.9,7.9,0,0,1-.863-.188V4.46a10.612,10.612,0,0,0,1.162.273,4.536,4.536,0,0,0,.632.051A2.214,2.214,0,0,0,34.222,4.5a2.6,2.6,0,0,0,.675-.692q.085-.137.615-1.4T36.282.53L29.514-18.3H33l4.9,14.9Zm13.638-6.8h3.965L67.659-13.04,74.871-25.1h3.982L69.368-10.117V0h-3.4V-10.117ZM85.415-1.982a4.242,4.242,0,0,0,4.2-2.316,11.537,11.537,0,0,0,1.136-5.153,9.174,9.174,0,0,0-.82-4.17,4.615,4.615,0,0,0-4.478-2.529A4.415,4.415,0,0,0,81.348-14a9.981,9.981,0,0,0-1.282,5.2,8.682,8.682,0,0,0,1.282,4.871A4.514,4.514,0,0,0,85.415-1.982Zm.12-16.851a8.288,8.288,0,0,1,5.981,2.358q2.444,2.358,2.444,6.938a11.9,11.9,0,0,1-2.153,7.314Q89.653.667,85.125.667a7.544,7.544,0,0,1-6-2.555A10.092,10.092,0,0,1,76.9-8.75,10.918,10.918,0,0,1,79.246-16.1,7.858,7.858,0,0,1,85.535-18.833Zm18.542.205a6.671,6.671,0,0,1,3.76,1.06,8.445,8.445,0,0,1,1.777,1.743v-2.307h2.837V-1.487a12.275,12.275,0,0,1-1.025,5.5q-1.914,3.726-7.229,3.726a8.868,8.868,0,0,1-4.973-1.324,5.165,5.165,0,0,1-2.256-4.144H100.1a3.481,3.481,0,0,0,.889,1.9A4.531,4.531,0,0,0,104.265,5.2q3.538,0,4.631-2.5a14.052,14.052,0,0,0,.6-5.247,6.036,6.036,0,0,1-2.222,2.085,7.391,7.391,0,0,1-3.435.684,7.333,7.333,0,0,1-5.2-2.111Q96.4-4,96.4-8.87a10.573,10.573,0,0,1,2.247-7.178A6.949,6.949,0,0,1,104.077-18.628Zm5.537,9.4a7.631,7.631,0,0,0-1.4-5.042,4.49,4.49,0,0,0-3.572-1.641,4.411,4.411,0,0,0-4.443,3.042,11.928,11.928,0,0,0-.632,4.255,7.554,7.554,0,0,0,1.256,4.708A4.055,4.055,0,0,0,104.2-2.29a4.738,4.738,0,0,0,4.666-2.991A9.646,9.646,0,0,0,109.614-9.229Zm9.827,4.358a2.533,2.533,0,0,0,.974,2.1A3.612,3.612,0,0,0,122.722-2a7.015,7.015,0,0,0,3.145-.752,4.232,4.232,0,0,0,2.563-4.084V-9.314a5.263,5.263,0,0,1-1.453.6,12.378,12.378,0,0,1-1.743.342l-1.863.239a7.124,7.124,0,0,0-2.512.7A2.73,2.73,0,0,0,119.441-4.871Zm7.451-6.221a1.671,1.671,0,0,0,1.418-.889,2.7,2.7,0,0,0,.205-1.179,2.5,2.5,0,0,0-1.119-2.281,6.006,6.006,0,0,0-3.2-.709,4.072,4.072,0,0,0-3.418,1.3,4.273,4.273,0,0,0-.735,2.136h-2.871q.085-3.384,2.2-4.708a9.017,9.017,0,0,1,4.9-1.324,9.962,9.962,0,0,1,5.247,1.23,4.174,4.174,0,0,1,2,3.828V-3.145a1.35,1.35,0,0,0,.2.769.948.948,0,0,0,.829.291q.205,0,.461-.026t.547-.077V.085a8.567,8.567,0,0,1-1.094.256,7.993,7.993,0,0,1-1.025.051,2.53,2.53,0,0,1-2.307-1.128,4.353,4.353,0,0,1-.53-1.692,7.826,7.826,0,0,1-2.7,2.136A8.352,8.352,0,0,1,122,.615a5.769,5.769,0,0,1-4.161-1.547A5.137,5.137,0,0,1,116.228-4.8a4.986,4.986,0,0,1,1.589-3.948,7.562,7.562,0,0,1,4.17-1.726Z" transform="translate(-12 136.503)" fill="#301258"/>
  </g>
</svg>
