<svg xmlns="http://www.w3.org/2000/svg" width="110.032" height="97.807" viewBox="0 0 110.032 97.807">
  <path id="logo" d="M649.706,164.453l-28.213-14.576L595.63,163.984c-5.642,3.291-12.7,2.822-18.338-.471a22.924,22.924,0,0,1-9.4-18.338v-.94a20.717,20.717,0,0,1,9.875-17.869c5.642-3.291,12.226-3.762,17.868-.47l25.862,13.636,28.213-15.047c5.643-3.291,12.7-2.822,18.339.471a20.718,20.718,0,0,1,9.875,17.869v3.291a20.72,20.72,0,0,1-9.875,17.869,25.281,25.281,0,0,1-9.875,2.351A18.439,18.439,0,0,1,649.706,164.453Zm4.7-31.975-22.57,11.756,22.57,11.756c3.762,1.881,7.053.47,8.934-.471,3.291-1.881,5.172-5.642,5.172-9.875v-3.291c0-4.232-1.881-7.994-5.172-9.875a7.778,7.778,0,0,0-8.934,0Zm-71.944,1.881c-3.291,1.881-5.172,5.643-5.172,9.875v.94c0,4.232,1.881,7.994,5.172,9.875a7.778,7.778,0,0,0,8.934,0l20.219-10.815L591.4,133.889a6.987,6.987,0,0,0-4.232-.941A11.142,11.142,0,0,0,582.464,134.359ZM574,107.556l6.583-6.583c1.411,1.41,39.5,36.677,84.17-.471l6.114,7.053c-16.928,14.577-33.386,19.28-47.963,19.28C594.22,126.836,574.47,108.027,574,107.556Zm30.094-18.809a20.219,20.219,0,1,1,40.439,0,20.219,20.219,0,1,1-40.439,0Zm9.4,0a10.815,10.815,0,1,0,10.815-10.814A10.641,10.641,0,0,0,613.5,88.747Z" transform="translate(-567.887 -68.528)" fill="#fff"/>
</svg>
